# xmcd
#
# Track frame offsets:
#	150
#	15670
#	33343
#	49494
#	66672
#	85525
#	104203
#	120213
#	133331
#	153692
#	166212
#	184937
#
# Disc length: 2604 seconds
#
# Revision: 0
# Processed by: cddbd v1.5.2PL0 Copyright (c) Steve Scherf et al.
# Submitted via: dBpowerAMP V4.0
#
DISCID=a90a2a0c
DTITLE=Lynne Hanson - Eleven Months
DYEAR=2008
DGENRE=Folk
TTITLE0=Eleven Months
TTITLE1=Seeking Juliet
TTITLE2=More of the same
TTITLE3=Nazareth Bound
TTITLE4=Dance in the Evermore
TTITLE5=Willow Tree
TTITLE6=Middle of the Bed
TTITLE7=Movie Queen
TTITLE8=Tears in your Rain
TTITLE9=Cold Touch
TTITLE10=Day Keeps Coming
TTITLE11=How Little I sleep
EXTD=
EXTT0=
EXTT1=
EXTT2=
EXTT3=
EXTT4=
EXTT5=
EXTT6=
EXTT7=
EXTT8=
EXTT9=
EXTT10=
EXTT11=
PLAYORDER=
